<?xml version="1.0" encoding="UTF-8"?>
<svg width="183px" height="154px" viewBox="0 0 183 154" version="1.1" xmlns="http://www.w3.org/2000/svg" xmlns:xlink="http://www.w3.org/1999/xlink">
    <title>Path</title>
    <g id="Page-1" stroke="none" stroke-width="1" fill="none" fill-rule="evenodd">
        <path d="M3.14281003,76 C3.14281003,62.7555443 19.698001,50.8711301 36.3354657,36.3147355 C56.065342,19.0527386 76.9448995,0.297528711 85.0808122,3.06044524 C91.6883253,5.30432468 91.9257583,11.9353814 91.7379763,22.8082576 C91.6737438,26.5274188 91.6737438,34.0050617 91.7379763,45.2411864 C110.314971,45.9706427 122.995714,46.4250377 129.780206,46.6043715 C151.385195,47.1754539 162.905668,47.6848649 169.123691,51.2137853 C177.219531,55.808425 179.921913,66.6299734 179.921913,74.1552883 C179.921913,81.5037018 179.921913,94.8403274 172.202474,99.8402234 C166.574871,103.485115 154.05719,104.270949 134.708004,105.528723 C126.849947,106.039527 112.526605,106.917974 91.7379763,108.164063 C91.6904755,117.969842 91.6904755,124.790539 91.7379763,128.626155 C91.879061,140.018515 91.4673884,147.225228 85.0808122,150.239276 C77.1215793,153.995516 56.3675785,135.886156 36.3354657,117.546665 C20.0799546,102.66467 3.14281003,88.9688245 3.14281003,76 Z" id="Path" stroke="#000000" stroke-width="5" fill="#FFFFFF"></path>
    </g>
</svg>