<?xml version="1.0" encoding="UTF-8"?>
<svg width="194px" height="215px" viewBox="0 0 194 215" version="1.1" xmlns="http://www.w3.org/2000/svg" xmlns:xlink="http://www.w3.org/1999/xlink">
    <title>personaje-green</title>
    <g id="Page-1" stroke="none" stroke-width="1" fill="none" fill-rule="evenodd">
        <g id="personaje-green" transform="translate(0.9439, 1.2269)">
            <path d="M82.8433152,0.274567543 C76.9993501,1.38290574 70.9370761,2.79351798 64.371012,2.79351798 C64.371012,2.79351798 63.9427904,2.75153547 63.5313618,2.79351798 C63.3214493,3.00343052 63.5313618,3.63316813 63.5313618,3.63316813 C65.9411577,3.85147716 69.3753268,2.81031098 71.0882131,4.47281827 C57.5446563,7.57952381 47.9558516,13.3815063 38.0899624,23.5328766 C28.2156767,33.6758503 25.5371927,44.6248882 20.0542773,57.5555005 C14.5797583,70.4945092 10.8265222,83.4419145 8.95410234,97.6739845 C7.08168251,111.914451 9.05486035,127.515151 14.6385338,140.689261 C20.2306038,153.863372 27.1913035,161.529378 36.6625571,169.883897 C45.7559682,168.481681 49.5092044,180.992468 50.9366096,188.3562 C59.7949187,193.704772 60.6765513,201.832585 71.2981257,205.778941 C81.9197,209.725296 93.7335776,210.338241 105.513869,210.187104 C100.123315,212.109903 93.0702539,210.489378 87.0415659,211.026754 C87.2178924,211.119116 87.0415659,211.866404 87.0415659,211.866404 C90.542907,211.56413 94.2373676,212.143489 97.1173676,212.706054 C100.971362,213.453343 104.489496,212.40378 108.03282,211.866404 C125.102907,206.887279 142.886697,197.16413 157.572178,186.6769 C157.488213,186.710486 149.830604,188.608095 145.758301,191.656025 C141.677601,194.695559 135.019175,195.661156 129.84693,197.575559 C124.666289,199.489961 121.080983,201.639466 116.639234,204.519466 C112.197484,207.399466 103.742207,205.459874 98.7966679,205.988853 C105.740575,200.463955 117.210196,197.290078 125.413578,190.623256 C133.608563,183.948037 138.82279,177.801798 144.356085,169.262556 C149.880983,160.714917 153.55865,151.126113 163.449729,146.373693 C162.500924,141.646463 156.010429,140.470952 155.892878,134.618591 C149.352003,138.55655 150.17486,125.768678 150.015327,121.184189 C149.855793,116.599699 147.723082,112.846463 146.656726,116.146288 C146.757484,116.540923 146.589554,117.414159 146.656726,117.825588 C147.445997,122.871885 146.715502,129.135675 144.977426,133.778941 C143.348505,138.136725 141.199,141.814393 138.260225,145.534043 C136.018359,148.380457 125.035735,159.178358 121.467222,155.609845 C122.04658,158.74174 125.379992,160.135559 128.184423,163.166696 C115.035502,168.658008 98.998184,167.977891 84.5226155,166.525296 C93.6328195,170.496842 100.484365,168.590836 111.39142,169.044247 C122.298476,169.497658 109.955618,175.811827 102.138476,176.584305 C94.3129362,177.356783 83.3555018,178.355967 75.941391,175.946171 C68.5272802,173.544772 62.2718866,170.564014 56.6042481,165.895559 C50.9450061,161.218707 44.698009,157.944072 41.0707204,151.201681 C37.4350353,144.467687 31.2887962,140.294626 29.1728778,132.872119 C27.048563,125.458008 28.3332277,114.861623 29.1057058,106.910136 C29.878184,98.9586492 31.4567262,89.143139 34.4038983,81.9809232 C37.3426738,74.810311 40.9195834,66.5901361 49.2573093,66.6069291 C37.7121198,84.6426142 29.7606329,107.304772 37.7708953,127.632702 C45.7811577,147.960632 61.2978924,165.039116 83.6829653,166.525296 C80.9960848,163.015559 70.601216,163.796433 66.6968429,160.001215 C62.7924697,156.205996 56.9149187,154.358766 53.7074551,149.480398 C50.4999915,144.602031 44.7819741,141.780807 43.9507204,135.726929 C43.1110703,129.673052 37.6701373,124.030603 38.5265805,117.640865 C39.3830236,111.251127 39.1395251,103.870603 40.0127612,97.665588 C40.8859974,91.4605734 42.1790586,84.6845967 45.3193501,79.4619728 C48.4512452,74.2309524 50.3656475,69.6128766 54.5051227,65.1375413 C58.6529945,60.6706025 62.8344522,58.7645967 67.7967846,54.918999 C72.7591169,51.0734014 79.7282131,51.1237804 86.2019157,49.8139261 C92.6840149,48.5124684 101.256843,49.242964 108.041216,49.8055296 C114.825589,50.3764917 120.140575,52.2321186 126.505123,54.0121769 C123.709088,54.952585 119.376493,55.9601652 116.429321,54.851827 C110.828855,62.5262294 118.85591,70.9143343 123.356435,77.3124684 C127.848563,83.7106025 132.206347,91.9979495 139.099875,95.9946842 C138.906755,92.9467541 134.137543,89.9408066 134.901624,87.5981827 C132.75212,84.1640136 130.602615,80.7802235 128.184423,77.522381 C123.012178,72.3501361 118.713169,65.7001069 116.429321,59.0500777 C130.291945,59.5370748 142.743957,72.7111856 144.977426,85.9188824 C145.506406,88.1103693 146.068971,90.7300777 145.817076,93.4757337 C147.068155,96.6999903 149.629088,86.6577745 149.175677,84.2395821 C153.533461,84.7433722 153.382324,89.6637221 155.330312,92.358999 C157.278301,95.0626725 158.042382,100.512002 158.395035,103.568328 C158.739292,106.633052 159.881216,114.164713 160.930779,111.948037 C160.678884,109.185588 161.300225,106.549086 161.770429,104.391186 C161.652878,103.711069 161.669671,102.552352 161.770429,101.872235 C161.249846,99.7647133 161.266639,98.8998737 161.770429,96.8343343 C161.661274,96.0114772 161.837601,95.1466375 161.770429,94.3153839 C159.503373,89.294276 156.942441,81.7458212 154.213578,75.8430807 C152.567863,72.282964 150.359583,68.5213314 147.496376,65.7672789 C145.430837,63.7773081 141.316551,61.7453547 144.137776,61.5690282 C151.803782,61.0820311 158.193519,62.7109524 165.96868,61.5690282 C168.269321,60.8133431 173.181274,58.9241302 176.044481,57.3707775 C159.226289,63.256725 141.408913,57.6730515 127.613461,48.705588 C113.818009,39.7381244 91.4329362,39.0328183 75.2864639,43.096725 C49.2153268,53.0885617 28.5599332,73.0302527 27.4264055,102.711885 C26.964598,114.735675 25.9402248,126.255675 27.4264055,137.977191 C23.6311869,135.50862 22.6487962,142.343372 24.067805,144.694393 C16.9979507,138.203897 13.3370761,131.503489 12.497426,121.839116 C11.6577758,112.166346 9.75176997,99.2609232 12.96763,89.09276 C16.1834901,78.9245967 16.2758516,68.7984159 21.4816825,59.8225559 C26.6959099,50.8466958 28.0477467,41.3838387 34.0764347,33.7934014 C40.1135192,26.2113605 42.9851227,19.0743343 51.9861723,13.9188824 C60.9872219,8.75503401 69.7867554,5.54757046 80.5174843,3.82628766 C91.2482131,2.10500486 105.908505,4.93462585 116.429321,6.15211856 C114.321799,4.02780369 110.106755,4.94302235 108.03282,2.79351798 C106.563432,2.29812439 104.204015,1.39130224 102.994919,1.11421769 C101.265239,0.904305152 100.148505,1.11421769 98.7966679,1.11421769 C96.6555601,1.11421769 94.4724697,0.492876581 92.9191169,0.274567543 C89.4261723,-0.220826043 86.5125863,0.0646550062 82.8433152,0.274567543 Z" id="Path" stroke="#0DA602" stroke-width="0.251895044"></path>
            <path d="M92.9191169,0.274567543 C94.4724697,0.492876581 96.6555601,1.11421769 98.7966679,1.11421769 C97.3860557,0.937891158 94.1282131,0.308153548 92.9191169,0.274567543 Z" id="Path" stroke-opacity="0.33" stroke="#23DA16" stroke-width="0.251895044"></path>
            <path d="M64.371012,2.79351798 C70.9370761,2.79351798 76.9993501,1.38290574 82.8433152,0.274567543 C77.8054143,0.560048592 68.1662306,-0.422342078 64.371012,2.79351798 Z" id="Path" stroke-opacity="0.52" stroke="#1BCA0F" stroke-width="0.251895044"></path>
            <path d="M108.03282,2.79351798 C106.672586,2.47445092 105.144423,1.37450923 102.994919,1.11421769 C104.204015,1.39130224 106.563432,2.29812439 108.03282,2.79351798 Z" id="Path" stroke-opacity="0.4" stroke="#28D71B" stroke-width="0.251895044"></path>
            <path d="M108.03282,2.79351798 C110.106755,4.94302235 114.321799,4.02780369 116.429321,6.15211856 C105.908505,4.93462585 91.2482131,2.10500486 80.5174843,3.82628766 C69.7867554,5.54757046 60.9872219,8.75503401 51.9861723,13.9188824 C42.9851227,19.0743343 40.1135192,26.2113605 34.0764347,33.7934014 C28.0477467,41.3838387 26.6959099,50.8466958 21.4816825,59.8225559 C16.2758516,68.7984159 16.1834901,78.9245967 12.96763,89.09276 C9.75176997,99.2609232 11.6577758,112.166346 12.497426,121.839116 C13.3370761,131.503489 16.9979507,138.203897 24.067805,144.694393 C22.6487962,142.343372 23.6311869,135.50862 27.4264055,137.977191 C25.9402248,126.255675 26.964598,114.735675 27.4264055,102.711885 C26.3432569,110.310719 22.2457641,118.371361 24.067805,124.542789 C12.9424405,118.908737 19.2817991,107.002498 17.1742773,96.6412148 C15.0583589,86.279932 20.7092044,73.0554422 22.3885047,64.0879786 C27.6615076,59.2180078 28.5935192,50.2673372 33.9336942,43.7264626 C39.2738691,37.185588 39.4753851,29.5027891 44.8659391,23.5916521 C50.256493,17.6805151 58.4514784,12.4830807 66.9571344,9.57789116 C75.4627904,6.68109815 88.3766096,5.14453839 97.9570178,6.15211856 C107.537426,7.15130224 118.562032,8.57031098 127.084481,13.1296113 C135.615327,17.6805151 144.188155,18.2682702 151.887747,24.4313022 C159.587338,30.5943343 167.522032,30.1493197 174.298009,38.1259961 C181.073986,46.1026725 170.679117,56.6654713 161.207863,55.9685617 C151.73661,55.2716521 142.408097,55.4395821 133.868855,50.0070457 C125.329613,44.5745092 117.613228,41.6441302 107.470254,40.30069 C97.3272802,38.9572498 84.4302539,39.3434888 75.2864639,43.096725 C91.4329362,39.0328183 113.818009,39.7381244 127.613461,48.705588 C141.408913,57.6730515 159.226289,63.256725 176.044481,57.3707775 C176.439117,57.2364334 179.932062,55.9937512 179.403082,56.5311273 C180.721333,54.549553 180.603782,52.2741011 181.082382,49.8139261 C181.174744,47.5552673 181.552586,46.6904276 181.922032,44.7760253 C182.543373,29.1081535 159.788855,24.5992323 148.336027,18.7468707 C145.237717,17.6637221 134.280283,15.5729932 132.382674,11.1900194 C132.231537,10.8373664 132.382674,10.3503693 132.382674,10.3503693 C129.653811,9.17485909 126.790604,8.1168999 123.986172,6.99176871 C122.684715,6.64751215 120.845881,6.32844509 118.948271,5.31246842 C115.220225,3.95223518 111.299059,3.55759961 108.03282,2.79351798 Z" id="Path" stroke-opacity="0.98" stroke="#0EC501" stroke-width="0.251895044"></path>
            <path d="M46.7383589,8.671069 C45.7643647,9.30920311 45.1010411,11.3579495 44.2194085,12.0296696 C50.6511286,9.2504276 56.8309536,5.56436346 63.5313618,3.63316813 C63.5313618,3.63316813 63.3214493,3.00343052 63.5313618,2.79351798 C57.7965513,3.38966958 52.2296708,6.24448008 46.7383589,8.671069 Z" id="Path" stroke-opacity="0.73" stroke="#1BB210" stroke-width="0.251895044"></path>
            <path d="M44.2194085,12.0296696 C43.0271053,12.5418562 42.0195251,12.9616812 40.8608079,13.7089699 C38.5601665,19.2254713 29.978942,25.665588 25.7471053,29.6623226 C15.394219,39.4190573 13.6057641,51.1657629 8.61824228,61.7873372 C3.62232391,72.4005151 1.80028309,89.7308941 0.557600877,101.032585 C0.666755396,101.653926 1.39725102,102.426404 1.39725102,103.551535 C1.69952508,102.29206 2.88343178,100.318882 2.23690117,98.5136346 C7.45112857,110.545821 7.39235306,128.489145 12.564598,141.923547 C17.7452394,155.357949 26.4859974,163.981156 35.6129945,174.29206 C44.7399915,184.611361 50.5839566,196.030603 61.8520615,203.469903 C69.1654143,207.542206 78.4603414,210.271069 87.0415659,211.026754 C93.0702539,210.489378 100.123315,212.109903 105.513869,210.187104 C93.7335776,210.338241 81.9197,209.725296 71.2981257,205.778941 C60.6765513,201.832585 59.7949187,193.704772 50.9366096,188.3562 C49.5092044,180.992468 45.7559682,168.481681 36.6625571,169.883897 C27.1913035,161.529378 20.2306038,153.863372 14.6385338,140.689261 C9.05486035,127.515151 7.08168251,111.914451 8.95410234,97.6739845 C10.8265222,83.4419145 14.5797583,70.4945092 20.0542773,57.5555005 C25.5371927,44.6248882 28.2156767,33.6758503 38.0899624,23.5328766 C47.9558516,13.3815063 57.5446563,7.57952381 71.0882131,4.47281827 C69.3753268,2.81031098 65.9411577,3.85147716 63.5313618,3.63316813 C56.8309536,5.56436346 50.6511286,9.2504276 44.2194085,12.0296696 Z" id="Path" stroke-opacity="0.97" stroke="#098600" stroke-width="0.251895044"></path>
            <path d="M27.4264055,102.711885 C28.5599332,73.0302527 49.2153268,53.0885617 75.2864639,43.096725 C84.4302539,39.3434888 97.3272802,38.9572498 107.470254,40.30069 C117.613228,41.6441302 125.329613,44.5745092 133.868855,50.0070457 C142.408097,55.4395821 151.73661,55.2716521 161.207863,55.9685617 C170.679117,56.6654713 181.073986,46.1026725 174.298009,38.1259961 C167.522032,30.1493197 159.587338,30.5943343 151.887747,24.4313022 C144.188155,18.2682702 135.615327,17.6805151 127.084481,13.1296113 C118.562032,8.57031098 107.537426,7.15130224 97.9570178,6.15211856 C88.3766096,5.14453839 75.4627904,6.68109815 66.9571344,9.57789116 C58.4514784,12.4830807 50.256493,17.6805151 44.8659391,23.5916521 C39.4753851,29.5027891 39.2738691,37.185588 33.9336942,43.7264626 C28.5935192,50.2673372 27.6615076,59.2180078 22.3885047,64.0879786 C20.7092044,73.0554422 15.0583589,86.279932 17.1742773,96.6412148 C19.2817991,107.002498 12.9424405,118.908737 24.067805,124.542789 C22.2457641,118.371361 26.3432569,110.310719 27.4264055,102.711885 Z" id="Path" stroke="#11EA01" stroke-width="0.251895044"></path>
            <path d="M123.986172,6.99176871 C122.306872,6.32004859 120.602382,5.91701652 118.948271,5.31246842 C120.845881,6.32844509 122.684715,6.64751215 123.986172,6.99176871 Z" id="Path" stroke-opacity="0.5" stroke="#22DF15" stroke-width="0.251895044"></path>
            <path d="M40.0211577,13.7089699 C40.3654143,13.5494363 40.8608079,13.7089699 40.8608079,13.7089699 C42.0195251,12.9616812 43.0271053,12.5418562 44.2194085,12.0296696 C45.1010411,11.3579495 45.7643647,9.30920311 46.7383589,8.671069 C44.630837,9.60308066 41.2302539,11.802964 40.0211577,13.7089699 Z" id="Path" stroke-opacity="0.33" stroke="#16AE0B" stroke-width="0.251895044"></path>
            <path d="M132.382674,11.1900194 C134.582557,12.4578912 137.697659,13.2723518 139.099875,13.7089699 C136.849613,12.5922352 134.691712,11.349553 132.382674,10.3503693 C132.382674,10.3503693 132.231537,10.8373664 132.382674,11.1900194 Z" id="Path" stroke-opacity="0.15" stroke="#21E313" stroke-width="0.251895044"></path>
            <path d="M148.336027,18.7468707 C144.137776,16.6057629 142.718767,15.4974247 139.099875,13.7089699 C137.697659,13.2723518 134.582557,12.4578912 132.382674,11.1900194 C134.280283,15.5729932 145.237717,17.6637221 148.336027,18.7468707 Z" id="Path" stroke-opacity="0.76" stroke="#1DD910" stroke-width="0.251895044"></path>
            <path d="M25.7471053,29.6623226 C29.978942,25.665588 38.5601665,19.2254713 40.8608079,13.7089699 C40.8608079,13.7089699 40.3654143,13.5494363 40.0211577,13.7089699 C34.8573093,16.1523518 29.4415659,24.9854713 25.7471053,29.6623226 Z" id="Path" stroke-opacity="0.58" stroke="#1AAE0F" stroke-width="0.251895044"></path>
            <path d="M181.082382,49.8139261 C181.35107,48.4368999 181.846464,46.6820311 181.922032,44.7760253 C181.552586,46.6904276 181.174744,47.5552673 181.082382,49.8139261 Z" id="Path" stroke-opacity="0.43" stroke="#15C309" stroke-width="0.251895044"></path>
            <path d="M83.6829653,166.525296 C84.1027904,166.500107 84.5226155,166.525296 84.5226155,166.525296 C98.998184,167.977891 115.035502,168.658008 128.184423,163.166696 C125.379992,160.135559 122.04658,158.74174 121.467222,155.609845 C120.971828,152.922964 120.719933,151.655092 121.467222,148.892643 C123.096143,142.880748 127.781391,138.271069 130.636201,132.872119 C133.482615,127.464772 137.244248,121.192585 140.779175,118.665238 C142.248563,117.615675 144.24693,113.157133 146.656726,116.146288 C147.723082,112.846463 149.855793,116.599699 150.015327,121.184189 C150.17486,125.768678 149.352003,138.55655 155.892878,134.618591 C156.010429,140.470952 162.500924,141.646463 163.449729,146.373693 C153.55865,151.126113 149.880983,160.714917 144.356085,169.262556 C138.82279,177.801798 133.608563,183.948037 125.413578,190.623256 C117.210196,197.290078 105.740575,200.463955 98.7966679,205.988853 C103.742207,205.459874 112.197484,207.399466 116.639234,204.519466 C121.080983,201.639466 124.666289,199.489961 129.84693,197.575559 C135.019175,195.661156 141.677601,194.695559 145.758301,191.656025 C149.830604,188.608095 157.488213,186.710486 157.572178,186.6769 C158.730895,185.845646 161.72005,184.191535 161.770429,184.157949 C168.890662,175.702672 178.235968,177.600282 187.589671,170.513635 C196.95177,163.435384 189.562849,154.241215 184.524948,146.289728 C179.487047,138.338241 160.863607,143.266987 159.251478,132.939291 C162.19865,129.429553 166.95107,115.953168 161.770429,111.948037 C161.510137,111.746521 160.930779,111.948037 160.930779,111.948037 C159.881216,114.164713 158.739292,106.633052 158.395035,103.568328 C158.042382,100.512002 157.278301,95.0626725 155.330312,92.358999 C153.382324,89.6637221 153.533461,84.7433722 149.175677,84.2395821 C149.629088,86.6577745 147.068155,96.6999903 145.817076,93.4757337 C145.758301,93.3329932 144.977426,93.4757337 144.977426,93.4757337 C144.767513,93.6856463 144.977426,94.3153839 144.977426,94.3153839 C144.524015,96.0366667 142.441683,97.1701944 140.779175,96.8343343 C141.157018,94.8947425 138.65486,94.2566084 138.260225,92.6360836 C137.101508,90.9483868 135.884015,89.1683285 134.901624,87.5981827 C134.137543,89.9408066 138.906755,92.9467541 139.099875,95.9946842 C132.206347,91.9979495 127.848563,83.7106025 123.356435,77.3124684 C118.85591,70.9143343 110.828855,62.5262294 116.429321,54.851827 C119.376493,55.9601652 123.709088,54.952585 126.505123,54.0121769 C120.140575,52.2321186 114.825589,50.3764917 108.041216,49.8055296 C101.256843,49.242964 92.6840149,48.5124684 86.2019157,49.8139261 C79.7282131,51.1237804 72.7591169,51.0734014 67.7967846,54.918999 C62.8344522,58.7645967 58.6529945,60.6706025 54.5051227,65.1375413 C50.3656475,69.6128766 48.4512452,74.2309524 45.3193501,79.4619728 C42.1790586,84.6845967 40.8859974,91.4605734 40.0127612,97.665588 C39.1395251,103.870603 39.3830236,111.251127 38.5265805,117.640865 C37.6701373,124.030603 43.1110703,129.673052 43.9507204,135.726929 C44.7819741,141.780807 50.4999915,144.602031 53.7074551,149.480398 C56.9149187,154.358766 62.7924697,156.205996 66.6968429,160.001215 C70.601216,163.796433 80.9960848,163.015559 83.6829653,166.525296 M114.750021,51.4932264 C106.966464,65.8176579 126.454744,80.0245384 132.315502,92.7032556 C138.17626,105.381973 146.220108,95.7847716 153.373927,94.3153839 C151.677834,95.9610982 154.902091,96.6664043 155.892878,97.6739845 C155.372295,106.70862 158.940808,116.675267 156.732528,126.222089 C154.028855,124.870253 154.742557,121.923081 155.053228,119.504888 C150.729029,119.336958 151.316785,115.592119 149.175677,112.787687 C140.812761,111.528212 137.051129,118.682031 134.12075,124.609961 C131.181974,130.537891 126.261624,136.104772 121.677134,142.385355 C117.101041,148.674334 121.794685,163.61171 113.339408,165.114684 C104.892528,166.626054 93.9938691,167.465705 85.6393501,165.408562 C77.2848312,163.351419 70.5088545,161.974393 64.3458225,156.474684 C58.1911869,150.966579 55.0089128,144.769961 49.8450644,138.229086 C44.6728195,131.688212 44.3201665,124.710719 42.8759682,117.204247 C41.4401665,109.697775 43.4805163,99.2273372 44.211012,91.7880369 C44.9499041,84.3571331 48.8878633,77.9338095 53.2456475,71.4349174 C57.6118283,64.9444218 64.0939274,61.0400486 70.8363181,57.1188824 C77.5703122,53.1977162 84.984423,50.8550923 92.6504289,50.3680952 C100.308038,49.8810982 107.14279,50.6283868 114.750021,51.4932264 M187.799583,158.968445 C187.312586,161.252293 184.306639,161.59655 186.959933,163.166696 C181.18314,170.177775 169.008213,169.951069 162.887164,176.038533 C156.757717,182.1176 149.797018,190.186638 140.779175,190.0355 C140.989088,187.247862 138.747222,187.802031 137.420575,189.19585 C132.810895,183.889261 142.441683,180.068853 145.187338,174.29206 C147.932994,168.515267 151.392353,161.369845 155.26314,155.819757 C159.142324,150.278066 165.926697,147.263722 172.475968,147.5576 C179.025239,147.851477 183.206697,155.685413 187.799583,158.968445 Z" id="Shape" stroke-opacity="0.98" stroke="#0FC802" stroke-width="0.251895044"></path>
            <path d="M114.750021,51.4932264 C107.14279,50.6283868 100.308038,49.8810982 92.6504289,50.3680952 C84.984423,50.8550923 77.5703122,53.1977162 70.8363181,57.1188824 C64.0939274,61.0400486 57.6118283,64.9444218 53.2456475,71.4349174 C48.8878633,77.9338095 44.9499041,84.3571331 44.211012,91.7880369 C43.4805163,99.2273372 41.4401665,109.697775 42.8759682,117.204247 C44.3201665,124.710719 44.6728195,131.688212 49.8450644,138.229086 C55.0089128,144.769961 58.1911869,150.966579 64.3458225,156.474684 C70.5088545,161.974393 77.2848312,163.351419 85.6393501,165.408562 C93.9938691,167.465705 104.892528,166.626054 113.339408,165.114684 C121.794685,163.61171 117.101041,148.674334 121.677134,142.385355 C126.261624,136.104772 131.181974,130.537891 134.12075,124.609961 C137.051129,118.682031 140.812761,111.528212 149.175677,112.787687 C151.316785,115.592119 150.729029,119.336958 155.053228,119.504888 C154.742557,121.923081 154.028855,124.870253 156.732528,126.222089 C158.940808,116.675267 155.372295,106.70862 155.892878,97.6739845 C154.902091,96.6664043 151.677834,95.9610982 153.373927,94.3153839 C146.220108,95.7847716 138.17626,105.381973 132.315502,92.7032556 C126.454744,80.0245384 106.966464,65.8176579 114.750021,51.4932264 Z" id="Path" stroke="#12F402" stroke-width="0.251895044"></path>
            <path d="M176.044481,57.3707775 C173.181274,58.9241302 168.269321,60.8133431 165.96868,61.5690282 C170.569962,60.8889116 176.405531,61.0400486 179.403082,56.5311273 C179.932062,55.9937512 176.439117,57.2364334 176.044481,57.3707775 Z" id="Path" stroke-opacity="0.66" stroke="#16B30B" stroke-width="0.251895044"></path>
            <path d="M128.184423,77.522381 C131.425473,80.7634305 140.468505,98.06862 144.977426,93.4757337 C144.75072,90.9819728 145.271304,88.4042468 144.977426,85.9188824 C142.743957,72.7111856 130.291945,59.5370748 116.429321,59.0500777 C118.713169,65.7001069 123.012178,72.3501361 128.184423,77.522381 Z" id="Path" stroke="#DCFBDA" stroke-width="0.251895044"></path>
            <path d="M147.496376,65.7672789 C146.45521,64.5245967 145.833869,62.5262294 144.137776,61.5690282 C141.316551,61.7453547 145.430837,63.7773081 147.496376,65.7672789 Z" id="Path" stroke-opacity="0.78" stroke="#35D02A" stroke-width="0.251895044"></path>
            <path d="M84.5226155,166.525296 C84.5226155,166.525296 84.1027904,166.500107 83.6829653,166.525296 C61.2978924,165.039116 45.7811577,147.960632 37.7708953,127.632702 C29.7606329,107.304772 37.7121198,84.6426142 49.2573093,66.6069034 C40.9195834,66.5901361 37.3426738,74.810311 34.4038983,81.9809232 C31.4567262,89.143139 29.878184,98.9586492 29.1057058,106.910136 C28.3332277,114.861623 27.048563,125.458008 29.1728778,132.872119 C31.2887962,140.294626 37.4350353,144.467687 41.0707204,151.201681 C44.698009,157.944072 50.9450061,161.218707 56.6042481,165.895559 C62.2718866,170.564014 68.5272802,173.544772 75.941391,175.946171 C83.3555018,178.355967 94.3129362,177.356783 102.138476,176.584305 C109.955618,175.811827 122.298476,169.497658 111.39142,169.044247 C100.484365,168.590836 93.6328195,170.496842 84.5226155,166.525296 Z" id="Path" stroke="#098500" stroke-width="0.251895044"></path>
            <path d="M161.770429,94.3153839 C161.149088,86.8844801 158.31107,81.5778912 154.213578,75.8430807 C156.942441,81.7458212 159.503373,89.294276 161.770429,94.3153839 Z" id="Path" stroke-opacity="0.69" stroke="#28BC1D" stroke-width="0.251895044"></path>
            <path d="M134.901624,87.5981827 C135.884015,89.1683285 137.101508,90.9483868 138.260225,92.6360836 C140.02349,94.6596404 142.844715,97.1450049 144.977426,94.3153839 C144.977426,94.3153839 144.767513,93.6856463 144.977426,93.4757337 C140.468505,98.06862 131.425473,80.7634305 128.184423,77.522381 C130.602615,80.7802235 132.75212,84.1640136 134.901624,87.5981827 Z" id="Path" stroke="#A6FBA0" stroke-width="0.251895044"></path>
            <path d="M144.977426,93.4757337 C144.977426,93.4757337 145.758301,93.3329932 145.817076,93.4757337 C146.068971,90.7300777 145.506406,88.1103693 144.977426,85.9188824 C145.271304,88.4042468 144.75072,90.9819728 144.977426,93.4757337 Z" id="Path" stroke="#5FC358" stroke-width="0.251895044"></path>
            <path d="M144.977426,94.3153839 C142.844715,97.1450049 140.02349,94.6596404 138.260225,92.6360836 C138.65486,94.2566084 141.157018,94.8947425 140.779175,96.8343343 C142.441683,97.1701944 144.524015,96.0366667 144.977426,94.3153839 Z" id="Path" stroke="#6DEC64" stroke-width="0.251895044"></path>
            <path d="M161.770429,101.872235 C162.106289,99.6807483 161.988738,98.4128766 161.770429,96.8343343 C161.266639,98.8998737 161.249846,99.7647133 161.770429,101.872235 Z" id="Path" stroke-opacity="0.63" stroke="#1FBD14" stroke-width="0.251895044"></path>
            <path d="M1.39725102,103.551535 C1.18733849,104.416375 0.700341402,105.524713 0.557600877,106.070486 C0.691944901,106.439932 0.599583385,107.338358 0.557600877,107.749786 C1.68273207,110.394684 1.39725102,113.786871 1.39725102,116.985938 C4.55433557,149.648328 33.2451811,187.524947 61.8520615,203.469903 C50.5839566,196.030603 44.7399915,184.611361 35.6129945,174.29206 C26.4859974,163.981156 17.7452394,155.357949 12.564598,141.923547 C7.39235306,128.489145 7.45112857,110.545821 2.23690117,98.5136346 C2.88343178,100.318882 1.69952508,102.29206 1.39725102,103.551535 Z" id="Path" stroke="#076300" stroke-width="0.251895044"></path>
            <path d="M0.557600877,106.070486 C0.700341402,105.524713 1.18733849,104.416375 1.39725102,103.551535 C1.39725102,102.426404 0.666755396,101.653926 0.557600877,101.032585 C0.364481344,102.762264 -0.0637402305,104.407979 0.557600877,106.070486 Z" id="Path" stroke-opacity="0.59" stroke="#25A61C" stroke-width="0.251895044"></path>
            <path d="M160.930779,111.948037 C160.930779,111.948037 161.510137,111.746521 161.770429,111.948037 C163.516901,109.874101 162.022324,105.877366 161.770429,104.391186 C161.300225,106.549086 160.678884,109.185588 160.930779,111.948037 Z" id="Path" stroke-opacity="0.58" stroke="#21D114" stroke-width="0.251895044"></path>
            <path d="M1.39725102,127.06174 C1.18733849,124.719116 1.39725102,120.210194 1.39725102,116.985938 C1.39725102,113.786871 1.68273207,110.394684 0.557600877,107.749786 C-0.122515741,114.450194 -0.508754808,120.226987 1.39725102,127.06174 Z" id="Path" stroke-opacity="0.61" stroke="#27A31E" stroke-width="0.251895044"></path>
            <path d="M140.779175,118.665238 C143.105006,115.8776 144.339292,116.305821 146.656726,117.825588 C146.589554,117.414159 146.757484,116.540923 146.656726,116.146288 C144.24693,113.157133 142.248563,117.615675 140.779175,118.665238 Z" id="Path" stroke="#67E65E" stroke-width="0.251895044"></path>
            <path d="M140.779175,118.665238 C140.367747,119.160632 140.21661,119.798766 139.939525,120.344538 C141.408913,118.715617 143.524831,117.380573 145.817076,117.825588 C146.404831,123.367279 144.91865,128.354801 144.977426,133.778941 C146.715502,129.135675 147.445997,122.871885 146.656726,117.825588 C144.339292,116.305821 143.105006,115.8776 140.779175,118.665238 Z" id="Path" stroke="#A3F39D" stroke-width="0.251895044"></path>
            <path d="M1.39725102,127.06174 C4.35281954,137.658124 7.19083703,144.400515 13.1523531,153.930544 C14.0843647,155.416725 15.3606329,158.305121 15.6713035,158.968445 C28.8957933,178.851361 45.2689711,198.801448 66.0503122,207.668154 C68.0066971,208.071186 69.5600499,208.994801 71.9278633,210.187104 C76.2352685,211.547337 80.0052977,212.06792 84.5226155,212.706054 C85.001216,212.630486 86.1011577,211.950369 87.0415659,211.866404 C87.0415659,211.866404 87.2178924,211.119116 87.0415659,211.026754 C78.4603414,210.271069 69.1654143,207.542206 61.8520615,203.469903 C33.2451811,187.524947 4.55433557,149.648328 1.39725102,116.985938 C1.39725102,120.210194 1.18733849,124.719116 1.39725102,127.06174 Z" id="Path" stroke-opacity="0.82" stroke="#208D18" stroke-width="0.251895044"></path>
            <path d="M121.467222,148.892643 C122.180924,147.38967 124.607513,145.987454 125.665473,144.694393 C130.812528,136.717716 135.63212,128.732643 139.939525,120.344538 C140.21661,119.798766 140.367747,119.160632 140.779175,118.665238 C137.244248,121.192585 133.482615,127.464772 130.636201,132.872119 C127.781391,138.271069 123.096143,142.880748 121.467222,148.892643 Z" id="Path" stroke="#2C9F24" stroke-width="0.251895044"></path>
            <path d="M139.939525,120.344538 C135.63212,128.732643 130.812528,136.717716 125.665473,144.694393 C123.163315,148.573576 119.86349,156.944888 125.875385,154.13206 C131.878884,151.327629 134.061974,150.068154 138.260225,145.534043 C141.199,141.814393 143.348505,138.136725 144.977426,133.778941 C144.91865,128.354801 146.404831,123.367279 145.817076,117.825588 C143.524831,117.380573 141.408913,118.715617 139.939525,120.344538 Z" id="Path" stroke="#DAFCD8" stroke-width="0.251895044"></path>
            <path d="M121.467222,148.892643 C120.719933,151.655092 120.971828,152.922964 121.467222,155.609845 C125.035735,159.178358 136.018359,148.380457 138.260225,145.534043 C134.061974,150.068154 131.878884,151.327629 125.875385,154.13206 C119.86349,156.944888 123.163315,148.573576 125.665473,144.694393 C124.607513,145.987454 122.180924,147.38967 121.467222,148.892643 Z" id="Path" stroke="#69CA62" stroke-width="0.251895044"></path>
            <path d="M187.799583,158.968445 C183.206697,155.685413 179.025239,147.851477 172.475968,147.5576 C165.926697,147.263722 159.142324,150.278066 155.26314,155.819757 C151.392353,161.369845 147.932994,168.515267 145.187338,174.29206 C142.441683,180.068853 132.810895,183.889261 137.420575,189.19585 C138.747222,187.802031 140.989088,187.247862 140.779175,190.0355 C149.797018,190.186638 156.757717,182.1176 162.887164,176.038533 C169.008213,169.951069 181.18314,170.177775 186.959933,163.166696 C184.306639,161.59655 187.312586,161.252293 187.799583,158.968445 Z" id="Path" stroke="#11FA00" stroke-width="0.251895044"></path>
            <path d="M15.6713035,158.968445 C15.3606329,158.305121 14.0843647,155.416725 13.1523531,153.930544 C14.0171927,155.853343 14.4873968,157.17999 15.6713035,158.968445 Z" id="Path" stroke-opacity="0.44" stroke="#3DAD35" stroke-width="0.251895044"></path>
            <path d="M157.572178,186.6769 C142.886697,197.16413 125.102907,206.887279 108.03282,211.866404 C125.892178,209.137541 149.662674,197.777075 161.770429,184.157949 C161.72005,184.191535 158.730895,185.845646 157.572178,186.6769 Z" id="Path" stroke-opacity="0.7" stroke="#20A916" stroke-width="0.251895044"></path>
            <path d="M66.0503122,207.668154 C67.8723531,208.449028 69.8119449,209.515384 71.9278633,210.187104 C69.5600499,208.994801 68.0066971,208.071186 66.0503122,207.668154 Z" id="Path" stroke-opacity="0.53" stroke="#29A320" stroke-width="0.251895044"></path>
            <path d="M84.5226155,212.706054 C88.7040732,213.29381 92.8015659,212.672468 97.1173676,212.706054 C94.2373676,212.143489 90.542907,211.56413 87.0415659,211.866404 C86.1011577,211.950369 85.001216,212.630486 84.5226155,212.706054 Z" id="Path" stroke-opacity="0.63" stroke="#29AF1F" stroke-width="0.251895044"></path>
            <path d="M82.8433152,0.274567543 C76.9993501,1.38290574 70.9370761,2.79351798 64.371012,2.79351798 C64.371012,2.79351798 63.9427904,2.75153547 63.5313618,2.79351798 C63.3214493,3.00343052 63.5313618,3.63316813 63.5313618,3.63316813 C65.9411577,3.85147716 69.3753268,2.81031098 71.0882131,4.47281827 C57.5446563,7.57952381 47.9558516,13.3815063 38.0899624,23.5328766 C28.2156767,33.6758503 25.5371927,44.6248882 20.0542773,57.5555005 C14.5797583,70.4945092 10.8265222,83.4419145 8.95410234,97.6739845 C7.08168251,111.914451 9.05486035,127.515151 14.6385338,140.689261 C20.2306038,153.863372 27.1913035,161.529378 36.6625571,169.883897 C45.7559682,168.481681 49.5092044,180.992468 50.9366096,188.3562 C59.7949187,193.704772 60.6765513,201.832585 71.2981257,205.778941 C81.9197,209.725296 93.7335776,210.338241 105.513869,210.187104 C100.123315,212.109903 93.0702539,210.489378 87.0415659,211.026754 C87.2178924,211.119116 87.0415659,211.866404 87.0415659,211.866404 C90.542907,211.56413 94.2373676,212.143489 97.1173676,212.706054 C100.971362,213.453343 104.489496,212.40378 108.03282,211.866404 C125.102907,206.887279 142.886697,197.16413 157.572178,186.6769 C157.488213,186.710486 149.830604,188.608095 145.758301,191.656025 C141.677601,194.695559 135.019175,195.661156 129.84693,197.575559 C124.666289,199.489961 121.080983,201.639466 116.639234,204.519466 C112.197484,207.399466 103.742207,205.459874 98.7966679,205.988853 C105.740575,200.463955 117.210196,197.290078 125.413578,190.623256 C133.608563,183.948037 138.82279,177.801798 144.356085,169.262556 C149.880983,160.714917 153.55865,151.126113 163.449729,146.373693 C162.500924,141.646463 156.010429,140.470952 155.892878,134.618591 C149.352003,138.55655 150.17486,125.768678 150.015327,121.184189 C149.855793,116.599699 147.723082,112.846463 146.656726,116.146288 C146.757484,116.540923 146.589554,117.414159 146.656726,117.825588 C147.445997,122.871885 146.715502,129.135675 144.977426,133.778941 C143.348505,138.136725 141.199,141.814393 138.260225,145.534043 C136.018359,148.380457 125.035735,159.178358 121.467222,155.609845 C122.04658,158.74174 125.379992,160.135559 128.184423,163.166696 C115.035502,168.658008 98.998184,167.977891 84.5226155,166.525296 C93.6328195,170.496842 100.484365,168.590836 111.39142,169.044247 C122.298476,169.497658 109.955618,175.811827 102.138476,176.584305 C94.3129362,177.356783 83.3555018,178.355967 75.941391,175.946171 C68.5272802,173.544772 62.2718866,170.564014 56.6042481,165.895559 C50.9450061,161.218707 44.698009,157.944072 41.0707204,151.201681 C37.4350353,144.467687 31.2887962,140.294626 29.1728778,132.872119 C27.048563,125.458008 28.3332277,114.861623 29.1057058,106.910136 C29.878184,98.9586492 31.4567262,89.143139 34.4038983,81.9809232 C37.3426738,74.810311 40.9195834,66.5901361 49.2573093,66.6069291 C37.7121198,84.6426142 29.7606329,107.304772 37.7708953,127.632702 C45.7811577,147.960632 61.2978924,165.039116 83.6829653,166.525296 C80.9960848,163.015559 70.601216,163.796433 66.6968429,160.001215 C62.7924697,156.205996 56.9149187,154.358766 53.7074551,149.480398 C50.4999915,144.602031 44.7819741,141.780807 43.9507204,135.726929 C43.1110703,129.673052 37.6701373,124.030603 38.5265805,117.640865 C39.3830236,111.251127 39.1395251,103.870603 40.0127612,97.665588 C40.8859974,91.4605734 42.1790586,84.6845967 45.3193501,79.4619728 C48.4512452,74.2309524 50.3656475,69.6128766 54.5051227,65.1375413 C58.6529945,60.6706025 62.8344522,58.7645967 67.7967846,54.918999 C72.7591169,51.0734014 79.7282131,51.1237804 86.2019157,49.8139261 C92.6840149,48.5124684 101.256843,49.242964 108.041216,49.8055296 C114.825589,50.3764917 120.140575,52.2321186 126.505123,54.0121769 C123.709088,54.952585 119.376493,55.9601652 116.429321,54.851827 C110.828855,62.5262294 118.85591,70.9143343 123.356435,77.3124684 C127.848563,83.7106025 132.206347,91.9979495 139.099875,95.9946842 C138.906755,92.9467541 134.137543,89.9408066 134.901624,87.5981827 C132.75212,84.1640136 130.602615,80.7802235 128.184423,77.522381 C123.012178,72.3501361 118.713169,65.7001069 116.429321,59.0500777 C130.291945,59.5370748 142.743957,72.7111856 144.977426,85.9188824 C145.506406,88.1103693 146.068971,90.7300777 145.817076,93.4757337 C147.068155,96.6999903 149.629088,86.6577745 149.175677,84.2395821 C153.533461,84.7433722 153.382324,89.6637221 155.330312,92.358999 C157.278301,95.0626725 158.042382,100.512002 158.395035,103.568328 C158.739292,106.633052 159.881216,114.164713 160.930779,111.948037 C160.678884,109.185588 161.300225,106.549086 161.770429,104.391186 C161.652878,103.711069 161.669671,102.552352 161.770429,101.872235 C161.249846,99.7647133 161.266639,98.8998737 161.770429,96.8343343 C161.661274,96.0114772 161.837601,95.1466375 161.770429,94.3153839 C159.503373,89.294276 156.942441,81.7458212 154.213578,75.8430807 C152.567863,72.282964 150.359583,68.5213314 147.496376,65.7672789 C145.430837,63.7773081 141.316551,61.7453547 144.137776,61.5690282 C151.803782,61.0820311 158.193519,62.7109524 165.96868,61.5690282 C168.269321,60.8133431 173.181274,58.9241302 176.044481,57.3707775 C159.226289,63.256725 141.408913,57.6730515 127.613461,48.705588 C113.818009,39.7381244 91.4329362,39.0328183 75.2864639,43.096725 C49.2153268,53.0885617 28.5599332,73.0302527 27.4264055,102.711885 C26.964598,114.735675 25.9402248,126.255675 27.4264055,137.977191 C23.6311869,135.50862 22.6487962,142.343372 24.067805,144.694393 C16.9979507,138.203897 13.3370761,131.503489 12.497426,121.839116 C11.6577758,112.166346 9.75176997,99.2609232 12.96763,89.09276 C16.1834901,78.9245967 16.2758516,68.7984159 21.4816825,59.8225559 C26.6959099,50.8466958 28.0477467,41.3838387 34.0764347,33.7934014 C40.1135192,26.2113605 42.9851227,19.0743343 51.9861723,13.9188824 C60.9872219,8.75503401 69.7867554,5.54757046 80.5174843,3.82628766 C91.2482131,2.10500486 105.908505,4.93462585 116.429321,6.15211856 C114.321799,4.02780369 110.106755,4.94302235 108.03282,2.79351798 C106.563432,2.29812439 104.204015,1.39130224 102.994919,1.11421769 C101.265239,0.904305152 100.148505,1.11421769 98.7966679,1.11421769 C96.6555601,1.11421769 94.4724697,0.492876581 92.9191169,0.274567543 C89.4261723,-0.220826043 86.5125863,0.0646550062 82.8433152,0.274567543 Z" id="Path" stroke="#000000" stroke-width="0.839650146" fill="#0DA602" fill-rule="nonzero"></path>
            <path d="M92.9191169,0.274567543 C94.4724697,0.492876581 96.6555601,1.11421769 98.7966679,1.11421769 C97.3860557,0.937891158 94.1282131,0.308153548 92.9191169,0.274567543 Z" id="Path" stroke="#000000" stroke-width="0.839650146" fill-opacity="0.33" fill="#23DA16" fill-rule="nonzero"></path>
            <path d="M64.371012,2.79351798 C70.9370761,2.79351798 76.9993501,1.38290574 82.8433152,0.274567543 C77.8054143,0.560048592 68.1662306,-0.422342078 64.371012,2.79351798 Z" id="Path" stroke="#000000" stroke-width="0.839650146" fill-opacity="0.52" fill="#1BCA0F" fill-rule="nonzero"></path>
            <path d="M108.03282,2.79351798 C106.672586,2.47445092 105.144423,1.37450923 102.994919,1.11421769 C104.204015,1.39130224 106.563432,2.29812439 108.03282,2.79351798 Z" id="Path" stroke="#000000" stroke-width="0.839650146" fill-opacity="0.4" fill="#28D71B" fill-rule="nonzero"></path>
            <path d="M108.03282,2.79351798 C110.106755,4.94302235 114.321799,4.02780369 116.429321,6.15211856 C105.908505,4.93462585 91.2482131,2.10500486 80.5174843,3.82628766 C69.7867554,5.54757046 60.9872219,8.75503401 51.9861723,13.9188824 C42.9851227,19.0743343 40.1135192,26.2113605 34.0764347,33.7934014 C28.0477467,41.3838387 26.6959099,50.8466958 21.4816825,59.8225559 C16.2758516,68.7984159 16.1834901,78.9245967 12.96763,89.09276 C9.75176997,99.2609232 11.6577758,112.166346 12.497426,121.839116 C13.3370761,131.503489 16.9979507,138.203897 24.067805,144.694393 C22.6487962,142.343372 23.6311869,135.50862 27.4264055,137.977191 C25.9402248,126.255675 26.964598,114.735675 27.4264055,102.711885 C26.3432569,110.310719 22.2457641,118.371361 24.067805,124.542789 C12.9424405,118.908737 19.2817991,107.002498 17.1742773,96.6412148 C15.0583589,86.279932 20.7092044,73.0554422 22.3885047,64.0879786 C27.6615076,59.2180078 28.5935192,50.2673372 33.9336942,43.7264626 C39.2738691,37.185588 39.4753851,29.5027891 44.8659391,23.5916521 C50.256493,17.6805151 58.4514784,12.4830807 66.9571344,9.57789116 C75.4627904,6.68109815 88.3766096,5.14453839 97.9570178,6.15211856 C107.537426,7.15130224 118.562032,8.57031098 127.084481,13.1296113 C135.615327,17.6805151 144.188155,18.2682702 151.887747,24.4313022 C159.587338,30.5943343 167.522032,30.1493197 174.298009,38.1259961 C181.073986,46.1026725 170.679117,56.6654713 161.207863,55.9685617 C151.73661,55.2716521 142.408097,55.4395821 133.868855,50.0070457 C125.329613,44.5745092 117.613228,41.6441302 107.470254,40.30069 C97.3272802,38.9572498 84.4302539,39.3434888 75.2864639,43.096725 C91.4329362,39.0328183 113.818009,39.7381244 127.613461,48.705588 C141.408913,57.6730515 159.226289,63.256725 176.044481,57.3707775 C176.439117,57.2364334 179.932062,55.9937512 179.403082,56.5311273 C180.721333,54.549553 180.603782,52.2741011 181.082382,49.8139261 C181.174744,47.5552673 181.552586,46.6904276 181.922032,44.7760253 C182.543373,29.1081535 159.788855,24.5992323 148.336027,18.7468707 C145.237717,17.6637221 134.280283,15.5729932 132.382674,11.1900194 C132.231537,10.8373664 132.382674,10.3503693 132.382674,10.3503693 C129.653811,9.17485909 126.790604,8.1168999 123.986172,6.99176871 C122.684715,6.64751215 120.845881,6.32844509 118.948271,5.31246842 C115.220225,3.95223518 111.299059,3.55759961 108.03282,2.79351798 Z" id="Path" stroke="#000000" stroke-width="0.839650146" fill-opacity="0.98" fill="#0EC501" fill-rule="nonzero"></path>
            <path d="M46.7383589,8.671069 C45.7643647,9.30920311 45.1010411,11.3579495 44.2194085,12.0296696 C50.6511286,9.2504276 56.8309536,5.56436346 63.5313618,3.63316813 C63.5313618,3.63316813 63.3214493,3.00343052 63.5313618,2.79351798 C57.7965513,3.38966958 52.2296708,6.24448008 46.7383589,8.671069 Z" id="Path" stroke="#000000" stroke-width="0.839650146" fill-opacity="0.73" fill="#1BB210" fill-rule="nonzero"></path>
            <path d="M44.2194085,12.0296696 C43.0271053,12.5418562 42.0195251,12.9616812 40.8608079,13.7089699 C38.5601665,19.2254713 29.978942,25.665588 25.7471053,29.6623226 C15.394219,39.4190573 13.6057641,51.1657629 8.61824228,61.7873372 C3.62232391,72.4005151 1.80028309,89.7308941 0.557600877,101.032585 C0.666755396,101.653926 1.39725102,102.426404 1.39725102,103.551535 C1.69952508,102.29206 2.88343178,100.318882 2.23690117,98.5136346 C7.45112857,110.545821 7.39235306,128.489145 12.564598,141.923547 C17.7452394,155.357949 26.4859974,163.981156 35.6129945,174.29206 C44.7399915,184.611361 50.5839566,196.030603 61.8520615,203.469903 C69.1654143,207.542206 78.4603414,210.271069 87.0415659,211.026754 C93.0702539,210.489378 100.123315,212.109903 105.513869,210.187104 C93.7335776,210.338241 81.9197,209.725296 71.2981257,205.778941 C60.6765513,201.832585 59.7949187,193.704772 50.9366096,188.3562 C49.5092044,180.992468 45.7559682,168.481681 36.6625571,169.883897 C27.1913035,161.529378 20.2306038,153.863372 14.6385338,140.689261 C9.05486035,127.515151 7.08168251,111.914451 8.95410234,97.6739845 C10.8265222,83.4419145 14.5797583,70.4945092 20.0542773,57.5555005 C25.5371927,44.6248882 28.2156767,33.6758503 38.0899624,23.5328766 C47.9558516,13.3815063 57.5446563,7.57952381 71.0882131,4.47281827 C69.3753268,2.81031098 65.9411577,3.85147716 63.5313618,3.63316813 C56.8309536,5.56436346 50.6511286,9.2504276 44.2194085,12.0296696 Z" id="Path" stroke="#000000" stroke-width="0.839650146" fill-opacity="0.97" fill="#098600" fill-rule="nonzero"></path>
            <path d="M27.4264055,102.711885 C28.5599332,73.0302527 49.2153268,53.0885617 75.2864639,43.096725 C84.4302539,39.3434888 97.3272802,38.9572498 107.470254,40.30069 C117.613228,41.6441302 125.329613,44.5745092 133.868855,50.0070457 C142.408097,55.4395821 151.73661,55.2716521 161.207863,55.9685617 C170.679117,56.6654713 181.073986,46.1026725 174.298009,38.1259961 C167.522032,30.1493197 159.587338,30.5943343 151.887747,24.4313022 C144.188155,18.2682702 135.615327,17.6805151 127.084481,13.1296113 C118.562032,8.57031098 107.537426,7.15130224 97.9570178,6.15211856 C88.3766096,5.14453839 75.4627904,6.68109815 66.9571344,9.57789116 C58.4514784,12.4830807 50.256493,17.6805151 44.8659391,23.5916521 C39.4753851,29.5027891 39.2738691,37.185588 33.9336942,43.7264626 C28.5935192,50.2673372 27.6615076,59.2180078 22.3885047,64.0879786 C20.7092044,73.0554422 15.0583589,86.279932 17.1742773,96.6412148 C19.2817991,107.002498 12.9424405,118.908737 24.067805,124.542789 C22.2457641,118.371361 26.3432569,110.310719 27.4264055,102.711885 Z" id="Path" stroke="#000000" stroke-width="0.839650146" fill="#11EA01" fill-rule="nonzero"></path>
            <path d="M123.986172,6.99176871 C122.306872,6.32004859 120.602382,5.91701652 118.948271,5.31246842 C120.845881,6.32844509 122.684715,6.64751215 123.986172,6.99176871 Z" id="Path" stroke="#000000" stroke-width="0.839650146" fill-opacity="0.5" fill="#22DF15" fill-rule="nonzero"></path>
            <path d="M40.0211577,13.7089699 C40.3654143,13.5494363 40.8608079,13.7089699 40.8608079,13.7089699 C42.0195251,12.9616812 43.0271053,12.5418562 44.2194085,12.0296696 C45.1010411,11.3579495 45.7643647,9.30920311 46.7383589,8.671069 C44.630837,9.60308066 41.2302539,11.802964 40.0211577,13.7089699 Z" id="Path" stroke="#000000" stroke-width="0.839650146" fill-opacity="0.33" fill="#16AE0B" fill-rule="nonzero"></path>
            <path d="M132.382674,11.1900194 C134.582557,12.4578912 137.697659,13.2723518 139.099875,13.7089699 C136.849613,12.5922352 134.691712,11.349553 132.382674,10.3503693 C132.382674,10.3503693 132.231537,10.8373664 132.382674,11.1900194 Z" id="Path" stroke="#000000" stroke-width="0.839650146" fill-opacity="0.15" fill="#21E313" fill-rule="nonzero"></path>
            <path d="M148.336027,18.7468707 C144.137776,16.6057629 142.718767,15.4974247 139.099875,13.7089699 C137.697659,13.2723518 134.582557,12.4578912 132.382674,11.1900194 C134.280283,15.5729932 145.237717,17.6637221 148.336027,18.7468707 Z" id="Path" stroke="#000000" stroke-width="0.839650146" fill-opacity="0.76" fill="#1DD910" fill-rule="nonzero"></path>
            <path d="M25.7471053,29.6623226 C29.978942,25.665588 38.5601665,19.2254713 40.8608079,13.7089699 C40.8608079,13.7089699 40.3654143,13.5494363 40.0211577,13.7089699 C34.8573093,16.1523518 29.4415659,24.9854713 25.7471053,29.6623226 Z" id="Path" stroke="#000000" stroke-width="0.839650146" fill-opacity="0.58" fill="#1AAE0F" fill-rule="nonzero"></path>
            <path d="M181.082382,49.8139261 C181.35107,48.4368999 181.846464,46.6820311 181.922032,44.7760253 C181.552586,46.6904276 181.174744,47.5552673 181.082382,49.8139261 Z" id="Path" stroke="#000000" stroke-width="0.839650146" fill-opacity="0.43" fill="#15C309" fill-rule="nonzero"></path>
            <path d="M83.6829653,166.525296 C84.1027904,166.500107 84.5226155,166.525296 84.5226155,166.525296 C98.998184,167.977891 115.035502,168.658008 128.184423,163.166696 C125.379992,160.135559 122.04658,158.74174 121.467222,155.609845 C120.971828,152.922964 120.719933,151.655092 121.467222,148.892643 C123.096143,142.880748 127.781391,138.271069 130.636201,132.872119 C133.482615,127.464772 137.244248,121.192585 140.779175,118.665238 C142.248563,117.615675 144.24693,113.157133 146.656726,116.146288 C147.723082,112.846463 149.855793,116.599699 150.015327,121.184189 C150.17486,125.768678 149.352003,138.55655 155.892878,134.618591 C156.010429,140.470952 162.500924,141.646463 163.449729,146.373693 C153.55865,151.126113 149.880983,160.714917 144.356085,169.262556 C138.82279,177.801798 133.608563,183.948037 125.413578,190.623256 C117.210196,197.290078 105.740575,200.463955 98.7966679,205.988853 C103.742207,205.459874 112.197484,207.399466 116.639234,204.519466 C121.080983,201.639466 124.666289,199.489961 129.84693,197.575559 C135.019175,195.661156 141.677601,194.695559 145.758301,191.656025 C149.830604,188.608095 157.488213,186.710486 157.572178,186.6769 C158.730895,185.845646 161.72005,184.191535 161.770429,184.157949 C168.890662,175.702672 178.235968,177.600282 187.589671,170.513635 C196.95177,163.435384 189.562849,154.241215 184.524948,146.289728 C179.487047,138.338241 160.863607,143.266987 159.251478,132.939291 C162.19865,129.429553 166.95107,115.953168 161.770429,111.948037 C161.510137,111.746521 160.930779,111.948037 160.930779,111.948037 C159.881216,114.164713 158.739292,106.633052 158.395035,103.568328 C158.042382,100.512002 157.278301,95.0626725 155.330312,92.358999 C153.382324,89.6637221 153.533461,84.7433722 149.175677,84.2395821 C149.629088,86.6577745 147.068155,96.6999903 145.817076,93.4757337 C145.758301,93.3329932 144.977426,93.4757337 144.977426,93.4757337 C144.767513,93.6856463 144.977426,94.3153839 144.977426,94.3153839 C144.524015,96.0366667 142.441683,97.1701944 140.779175,96.8343343 C141.157018,94.8947425 138.65486,94.2566084 138.260225,92.6360836 C137.101508,90.9483868 135.884015,89.1683285 134.901624,87.5981827 C134.137543,89.9408066 138.906755,92.9467541 139.099875,95.9946842 C132.206347,91.9979495 127.848563,83.7106025 123.356435,77.3124684 C118.85591,70.9143343 110.828855,62.5262294 116.429321,54.851827 C119.376493,55.9601652 123.709088,54.952585 126.505123,54.0121769 C120.140575,52.2321186 114.825589,50.3764917 108.041216,49.8055296 C101.256843,49.242964 92.6840149,48.5124684 86.2019157,49.8139261 C79.7282131,51.1237804 72.7591169,51.0734014 67.7967846,54.918999 C62.8344522,58.7645967 58.6529945,60.6706025 54.5051227,65.1375413 C50.3656475,69.6128766 48.4512452,74.2309524 45.3193501,79.4619728 C42.1790586,84.6845967 40.8859974,91.4605734 40.0127612,97.665588 C39.1395251,103.870603 39.3830236,111.251127 38.5265805,117.640865 C37.6701373,124.030603 43.1110703,129.673052 43.9507204,135.726929 C44.7819741,141.780807 50.4999915,144.602031 53.7074551,149.480398 C56.9149187,154.358766 62.7924697,156.205996 66.6968429,160.001215 C70.601216,163.796433 80.9960848,163.015559 83.6829653,166.525296 M114.750021,51.4932264 C106.966464,65.8176579 126.454744,80.0245384 132.315502,92.7032556 C138.17626,105.381973 146.220108,95.7847716 153.373927,94.3153839 C151.677834,95.9610982 154.902091,96.6664043 155.892878,97.6739845 C155.372295,106.70862 158.940808,116.675267 156.732528,126.222089 C154.028855,124.870253 154.742557,121.923081 155.053228,119.504888 C150.729029,119.336958 151.316785,115.592119 149.175677,112.787687 C140.812761,111.528212 137.051129,118.682031 134.12075,124.609961 C131.181974,130.537891 126.261624,136.104772 121.677134,142.385355 C117.101041,148.674334 121.794685,163.61171 113.339408,165.114684 C104.892528,166.626054 93.9938691,167.465705 85.6393501,165.408562 C77.2848312,163.351419 70.5088545,161.974393 64.3458225,156.474684 C58.1911869,150.966579 55.0089128,144.769961 49.8450644,138.229086 C44.6728195,131.688212 44.3201665,124.710719 42.8759682,117.204247 C41.4401665,109.697775 43.4805163,99.2273372 44.211012,91.7880369 C44.9499041,84.3571331 48.8878633,77.9338095 53.2456475,71.4349174 C57.6118283,64.9444218 64.0939274,61.0400486 70.8363181,57.1188824 C77.5703122,53.1977162 84.984423,50.8550923 92.6504289,50.3680952 C100.308038,49.8810982 107.14279,50.6283868 114.750021,51.4932264 M187.799583,158.968445 C187.312586,161.252293 184.306639,161.59655 186.959933,163.166696 C181.18314,170.177775 169.008213,169.951069 162.887164,176.038533 C156.757717,182.1176 149.797018,190.186638 140.779175,190.0355 C140.989088,187.247862 138.747222,187.802031 137.420575,189.19585 C132.810895,183.889261 142.441683,180.068853 145.187338,174.29206 C147.932994,168.515267 151.392353,161.369845 155.26314,155.819757 C159.142324,150.278066 165.926697,147.263722 172.475968,147.5576 C179.025239,147.851477 183.206697,155.685413 187.799583,158.968445 Z" id="Shape" stroke="#000000" stroke-width="0.839650146" fill-opacity="0.98" fill="#0FC802" fill-rule="nonzero"></path>
            <path d="M114.750021,51.4932264 C107.14279,50.6283868 100.308038,49.8810982 92.6504289,50.3680952 C84.984423,50.8550923 77.5703122,53.1977162 70.8363181,57.1188824 C64.0939274,61.0400486 57.6118283,64.9444218 53.2456475,71.4349174 C48.8878633,77.9338095 44.9499041,84.3571331 44.211012,91.7880369 C43.4805163,99.2273372 41.4401665,109.697775 42.8759682,117.204247 C44.3201665,124.710719 44.6728195,131.688212 49.8450644,138.229086 C55.0089128,144.769961 58.1911869,150.966579 64.3458225,156.474684 C70.5088545,161.974393 77.2848312,163.351419 85.6393501,165.408562 C93.9938691,167.465705 104.892528,166.626054 113.339408,165.114684 C121.794685,163.61171 117.101041,148.674334 121.677134,142.385355 C126.261624,136.104772 131.181974,130.537891 134.12075,124.609961 C137.051129,118.682031 140.812761,111.528212 149.175677,112.787687 C151.316785,115.592119 150.729029,119.336958 155.053228,119.504888 C154.742557,121.923081 154.028855,124.870253 156.732528,126.222089 C158.940808,116.675267 155.372295,106.70862 155.892878,97.6739845 C154.902091,96.6664043 151.677834,95.9610982 153.373927,94.3153839 C146.220108,95.7847716 138.17626,105.381973 132.315502,92.7032556 C126.454744,80.0245384 106.966464,65.8176579 114.750021,51.4932264 Z" id="Path" stroke="#000000" stroke-width="0.839650146" fill="#12F402" fill-rule="nonzero"></path>
            <path d="M176.044481,57.3707775 C173.181274,58.9241302 168.269321,60.8133431 165.96868,61.5690282 C170.569962,60.8889116 176.405531,61.0400486 179.403082,56.5311273 C179.932062,55.9937512 176.439117,57.2364334 176.044481,57.3707775 Z" id="Path" stroke="#000000" stroke-width="0.839650146" fill-opacity="0.66" fill="#16B30B" fill-rule="nonzero"></path>
            <path d="M128.184423,77.522381 C131.425473,80.7634305 140.468505,98.06862 144.977426,93.4757337 C144.75072,90.9819728 145.271304,88.4042468 144.977426,85.9188824 C142.743957,72.7111856 130.291945,59.5370748 116.429321,59.0500777 C118.713169,65.7001069 123.012178,72.3501361 128.184423,77.522381 Z" id="Path" stroke="#000000" stroke-width="0.839650146" fill="#DCFBDA" fill-rule="nonzero"></path>
            <path d="M147.496376,65.7672789 C146.45521,64.5245967 145.833869,62.5262294 144.137776,61.5690282 C141.316551,61.7453547 145.430837,63.7773081 147.496376,65.7672789 Z" id="Path" stroke="#000000" stroke-width="0.839650146" fill-opacity="0.78" fill="#35D02A" fill-rule="nonzero"></path>
            <path d="M84.5226155,166.525296 C84.5226155,166.525296 84.1027904,166.500107 83.6829653,166.525296 C61.2978924,165.039116 45.7811577,147.960632 37.7708953,127.632702 C29.7606329,107.304772 37.7121198,84.6426142 49.2573093,66.6069034 C40.9195834,66.5901361 37.3426738,74.810311 34.4038983,81.9809232 C31.4567262,89.143139 29.878184,98.9586492 29.1057058,106.910136 C28.3332277,114.861623 27.048563,125.458008 29.1728778,132.872119 C31.2887962,140.294626 37.4350353,144.467687 41.0707204,151.201681 C44.698009,157.944072 50.9450061,161.218707 56.6042481,165.895559 C62.2718866,170.564014 68.5272802,173.544772 75.941391,175.946171 C83.3555018,178.355967 94.3129362,177.356783 102.138476,176.584305 C109.955618,175.811827 122.298476,169.497658 111.39142,169.044247 C100.484365,168.590836 93.6328195,170.496842 84.5226155,166.525296 Z" id="Path" stroke="#000000" stroke-width="0.839650146" fill="#098500" fill-rule="nonzero"></path>
            <path d="M161.770429,94.3153839 C161.149088,86.8844801 158.31107,81.5778912 154.213578,75.8430807 C156.942441,81.7458212 159.503373,89.294276 161.770429,94.3153839 Z" id="Path" stroke="#000000" stroke-width="0.839650146" fill-opacity="0.69" fill="#28BC1D" fill-rule="nonzero"></path>
            <path d="M134.901624,87.5981827 C135.884015,89.1683285 137.101508,90.9483868 138.260225,92.6360836 C140.02349,94.6596404 142.844715,97.1450049 144.977426,94.3153839 C144.977426,94.3153839 144.767513,93.6856463 144.977426,93.4757337 C140.468505,98.06862 131.425473,80.7634305 128.184423,77.522381 C130.602615,80.7802235 132.75212,84.1640136 134.901624,87.5981827 Z" id="Path" stroke="#000000" stroke-width="0.839650146" fill="#A6FBA0" fill-rule="nonzero"></path>
            <path d="M144.977426,93.4757337 C144.977426,93.4757337 145.758301,93.3329932 145.817076,93.4757337 C146.068971,90.7300777 145.506406,88.1103693 144.977426,85.9188824 C145.271304,88.4042468 144.75072,90.9819728 144.977426,93.4757337 Z" id="Path" stroke="#000000" stroke-width="0.839650146" fill="#5FC358" fill-rule="nonzero"></path>
            <path d="M144.977426,94.3153839 C142.844715,97.1450049 140.02349,94.6596404 138.260225,92.6360836 C138.65486,94.2566084 141.157018,94.8947425 140.779175,96.8343343 C142.441683,97.1701944 144.524015,96.0366667 144.977426,94.3153839 Z" id="Path" stroke="#000000" stroke-width="0.839650146" fill="#6DEC64" fill-rule="nonzero"></path>
            <path d="M161.770429,101.872235 C162.106289,99.6807483 161.988738,98.4128766 161.770429,96.8343343 C161.266639,98.8998737 161.249846,99.7647133 161.770429,101.872235 Z" id="Path" stroke="#000000" stroke-width="0.839650146" fill-opacity="0.63" fill="#1FBD14" fill-rule="nonzero"></path>
            <path d="M1.39725102,103.551535 C1.18733849,104.416375 0.700341402,105.524713 0.557600877,106.070486 C0.691944901,106.439932 0.599583385,107.338358 0.557600877,107.749786 C1.68273207,110.394684 1.39725102,113.786871 1.39725102,116.985938 C4.55433557,149.648328 33.2451811,187.524947 61.8520615,203.469903 C50.5839566,196.030603 44.7399915,184.611361 35.6129945,174.29206 C26.4859974,163.981156 17.7452394,155.357949 12.564598,141.923547 C7.39235306,128.489145 7.45112857,110.545821 2.23690117,98.5136346 C2.88343178,100.318882 1.69952508,102.29206 1.39725102,103.551535 Z" id="Path" stroke="#000000" stroke-width="0.839650146" fill="#076300" fill-rule="nonzero"></path>
            <path d="M0.557600877,106.070486 C0.700341402,105.524713 1.18733849,104.416375 1.39725102,103.551535 C1.39725102,102.426404 0.666755396,101.653926 0.557600877,101.032585 C0.364481344,102.762264 -0.0637402305,104.407979 0.557600877,106.070486 Z" id="Path" stroke="#000000" stroke-width="0.839650146" fill-opacity="0.59" fill="#25A61C" fill-rule="nonzero"></path>
            <path d="M160.930779,111.948037 C160.930779,111.948037 161.510137,111.746521 161.770429,111.948037 C163.516901,109.874101 162.022324,105.877366 161.770429,104.391186 C161.300225,106.549086 160.678884,109.185588 160.930779,111.948037 Z" id="Path" stroke="#000000" stroke-width="0.839650146" fill-opacity="0.58" fill="#21D114" fill-rule="nonzero"></path>
            <path d="M1.39725102,127.06174 C1.18733849,124.719116 1.39725102,120.210194 1.39725102,116.985938 C1.39725102,113.786871 1.68273207,110.394684 0.557600877,107.749786 C-0.122515741,114.450194 -0.508754808,120.226987 1.39725102,127.06174 Z" id="Path" stroke="#000000" stroke-width="0.839650146" fill-opacity="0.61" fill="#27A31E" fill-rule="nonzero"></path>
            <path d="M140.779175,118.665238 C143.105006,115.8776 144.339292,116.305821 146.656726,117.825588 C146.589554,117.414159 146.757484,116.540923 146.656726,116.146288 C144.24693,113.157133 142.248563,117.615675 140.779175,118.665238 Z" id="Path" stroke="#000000" stroke-width="0.839650146" fill="#67E65E" fill-rule="nonzero"></path>
            <path d="M140.779175,118.665238 C140.367747,119.160632 140.21661,119.798766 139.939525,120.344538 C141.408913,118.715617 143.524831,117.380573 145.817076,117.825588 C146.404831,123.367279 144.91865,128.354801 144.977426,133.778941 C146.715502,129.135675 147.445997,122.871885 146.656726,117.825588 C144.339292,116.305821 143.105006,115.8776 140.779175,118.665238 Z" id="Path" stroke="#000000" stroke-width="0.839650146" fill="#A3F39D" fill-rule="nonzero"></path>
            <path d="M1.39725102,127.06174 C4.35281954,137.658124 7.19083703,144.400515 13.1523531,153.930544 C14.0843647,155.416725 15.3606329,158.305121 15.6713035,158.968445 C28.8957933,178.851361 45.2689711,198.801448 66.0503122,207.668154 C68.0066971,208.071186 69.5600499,208.994801 71.9278633,210.187104 C76.2352685,211.547337 80.0052977,212.06792 84.5226155,212.706054 C85.001216,212.630486 86.1011577,211.950369 87.0415659,211.866404 C87.0415659,211.866404 87.2178924,211.119116 87.0415659,211.026754 C78.4603414,210.271069 69.1654143,207.542206 61.8520615,203.469903 C33.2451811,187.524947 4.55433557,149.648328 1.39725102,116.985938 C1.39725102,120.210194 1.18733849,124.719116 1.39725102,127.06174 Z" id="Path" stroke="#000000" stroke-width="0.839650146" fill-opacity="0.82" fill="#208D18" fill-rule="nonzero"></path>
            <path d="M121.467222,148.892643 C122.180924,147.38967 124.607513,145.987454 125.665473,144.694393 C130.812528,136.717716 135.63212,128.732643 139.939525,120.344538 C140.21661,119.798766 140.367747,119.160632 140.779175,118.665238 C137.244248,121.192585 133.482615,127.464772 130.636201,132.872119 C127.781391,138.271069 123.096143,142.880748 121.467222,148.892643 Z" id="Path" stroke="#000000" stroke-width="0.839650146" fill="#2C9F24" fill-rule="nonzero"></path>
            <path d="M139.939525,120.344538 C135.63212,128.732643 130.812528,136.717716 125.665473,144.694393 C123.163315,148.573576 119.86349,156.944888 125.875385,154.13206 C131.878884,151.327629 134.061974,150.068154 138.260225,145.534043 C141.199,141.814393 143.348505,138.136725 144.977426,133.778941 C144.91865,128.354801 146.404831,123.367279 145.817076,117.825588 C143.524831,117.380573 141.408913,118.715617 139.939525,120.344538 Z" id="Path" stroke="#000000" stroke-width="0.839650146" fill="#DAFCD8" fill-rule="nonzero"></path>
            <path d="M121.467222,148.892643 C120.719933,151.655092 120.971828,152.922964 121.467222,155.609845 C125.035735,159.178358 136.018359,148.380457 138.260225,145.534043 C134.061974,150.068154 131.878884,151.327629 125.875385,154.13206 C119.86349,156.944888 123.163315,148.573576 125.665473,144.694393 C124.607513,145.987454 122.180924,147.38967 121.467222,148.892643 Z" id="Path" stroke="#000000" stroke-width="0.839650146" fill="#69CA62" fill-rule="nonzero"></path>
            <path d="M187.799583,158.968445 C183.206697,155.685413 179.025239,147.851477 172.475968,147.5576 C165.926697,147.263722 159.142324,150.278066 155.26314,155.819757 C151.392353,161.369845 147.932994,168.515267 145.187338,174.29206 C142.441683,180.068853 132.810895,183.889261 137.420575,189.19585 C138.747222,187.802031 140.989088,187.247862 140.779175,190.0355 C149.797018,190.186638 156.757717,182.1176 162.887164,176.038533 C169.008213,169.951069 181.18314,170.177775 186.959933,163.166696 C184.306639,161.59655 187.312586,161.252293 187.799583,158.968445 Z" id="Path" stroke="#000000" stroke-width="0.839650146" fill="#11FA00" fill-rule="nonzero"></path>
            <path d="M15.6713035,158.968445 C15.3606329,158.305121 14.0843647,155.416725 13.1523531,153.930544 C14.0171927,155.853343 14.4873968,157.17999 15.6713035,158.968445 Z" id="Path" stroke="#000000" stroke-width="0.839650146" fill-opacity="0.44" fill="#3DAD35" fill-rule="nonzero"></path>
            <path d="M157.572178,186.6769 C142.886697,197.16413 125.102907,206.887279 108.03282,211.866404 C125.892178,209.137541 149.662674,197.777075 161.770429,184.157949 C161.72005,184.191535 158.730895,185.845646 157.572178,186.6769 Z" id="Path" stroke="#000000" stroke-width="0.839650146" fill-opacity="0.7" fill="#20A916" fill-rule="nonzero"></path>
            <path d="M66.0503122,207.668154 C67.8723531,208.449028 69.8119449,209.515384 71.9278633,210.187104 C69.5600499,208.994801 68.0066971,208.071186 66.0503122,207.668154 Z" id="Path" stroke="#000000" stroke-width="0.839650146" fill-opacity="0.53" fill="#29A320" fill-rule="nonzero"></path>
            <path d="M84.5226155,212.706054 C88.7040732,213.29381 92.8015659,212.672468 97.1173676,212.706054 C94.2373676,212.143489 90.542907,211.56413 87.0415659,211.866404 C86.1011577,211.950369 85.001216,212.630486 84.5226155,212.706054 Z" id="Path" stroke="#000000" stroke-width="0.839650146" fill-opacity="0.63" fill="#29AF1F" fill-rule="nonzero"></path>
        </g>
    </g>
</svg>